<svg xmlns="http://www.w3.org/2000/svg" xmlns:xlink="http://www.w3.org/1999/xlink" width="500" zoomAndPan="magnify" viewBox="0 0 375 374.999991" height="500" preserveAspectRatio="xMidYMid meet" version="1.0"><defs><filter x="0%" y="0%" width="100%" height="100%" id="2a1579da48"><feColorMatrix values="0 0 0 0 1 0 0 0 0 1 0 0 0 0 1 0 0 0 1 0" color-interpolation-filters="sRGB"/></filter><clipPath id="2d588262d3"><path d="M 187.5 0 C 83.945312 0 0 83.945312 0 187.5 C 0 291.054688 83.945312 375 187.5 375 C 291.054688 375 375 291.054688 375 187.5 C 375 83.945312 291.054688 0 187.5 0 " clip-rule="nonzero"/></clipPath><mask id="316c187b2e"><g filter="url(#2a1579da48)"><rect x="-37.5" width="450" fill="#000000" y="-37.499999" height="449.999989" fill-opacity="0.698"/></g></mask><clipPath id="f4a126bd5e"><path d="M 0.550781 0.703125 L 291.328125 0.703125 L 291.328125 291.480469 L 0.550781 291.480469 Z M 0.550781 0.703125 " clip-rule="nonzero"/></clipPath><clipPath id="a25826f328"><path d="M 145.941406 0.703125 C 65.644531 0.703125 0.550781 65.796875 0.550781 146.089844 C 0.550781 226.386719 65.644531 291.480469 145.941406 291.480469 C 226.234375 291.480469 291.328125 226.386719 291.328125 146.089844 C 291.328125 65.796875 226.234375 0.703125 145.941406 0.703125 " clip-rule="nonzero"/></clipPath><clipPath id="7bb82b68ab"><rect x="0" width="292" y="0" height="292"/></clipPath><clipPath id="5a49dc4979"><path d="M 28.507812 187.992188 L 346.507812 187.992188 L 346.507812 346.992188 L 28.507812 346.992188 Z M 28.507812 187.992188 " clip-rule="nonzero"/></clipPath><clipPath id="b2f52767a1"><path d="M 41 191 L 189 191 L 189 331 L 41 331 Z M 41 191 " clip-rule="nonzero"/></clipPath><clipPath id="98b8ba3825"><path d="M 139.078125 160.59375 L 199.804688 325.253906 L 99.179688 362.363281 L 38.453125 197.703125 Z M 139.078125 160.59375 " clip-rule="nonzero"/></clipPath><clipPath id="7645ae0d48"><path d="M 139.078125 160.59375 L 199.804688 325.253906 L 99.179688 362.363281 L 38.453125 197.703125 Z M 139.078125 160.59375 " clip-rule="nonzero"/></clipPath><clipPath id="d02f2380ee"><path d="M 28.484375 30.042969 L 346.484375 30.042969 L 346.484375 189.042969 L 28.484375 189.042969 Z M 28.484375 30.042969 " clip-rule="nonzero"/></clipPath><clipPath id="7d61ddfea5"><path d="M 193 39 L 333 39 L 333 185 L 193 185 Z M 193 39 " clip-rule="nonzero"/></clipPath><clipPath id="2e4fb64ac1"><path d="M 232.902344 211.664062 L 182.117188 43.671875 L 284.777344 12.636719 L 335.566406 180.625 Z M 232.902344 211.664062 " clip-rule="nonzero"/></clipPath><clipPath id="4bd4d8f0da"><path d="M 232.902344 211.664062 L 182.117188 43.671875 L 284.777344 12.636719 L 335.566406 180.625 Z M 232.902344 211.664062 " clip-rule="nonzero"/></clipPath></defs><g clip-path="url(#2d588262d3)"><rect x="-37.5" width="450" fill="#c9c9c9" y="-37.499999" height="449.999989" fill-opacity="1"/><path stroke-linecap="butt" transform="matrix(0.75, 0, 0, 0.75, 0.0000045, 0)" fill="none" stroke-linejoin="miter" d="M 249.999994 0 C 111.927078 0 -0.000006 111.927084 -0.000006 250 C -0.000006 388.072917 111.927078 500.000001 249.999994 500.000001 C 388.072911 500.000001 499.999995 388.072917 499.999995 250 C 499.999995 111.927084 388.072911 0 249.999994 0 " stroke="#252627" stroke-width="8" stroke-opacity="1" stroke-miterlimit="4"/></g><g mask="url(#316c187b2e)"><g transform="matrix(1, 0, 0, 1, 42, 40)"><g clip-path="url(#7bb82b68ab)"><g clip-path="url(#f4a126bd5e)"><g clip-path="url(#a25826f328)"><path fill="#c9c9c9" d="M 0.550781 0.703125 L 291.328125 0.703125 L 291.328125 291.480469 L 0.550781 291.480469 Z M 0.550781 0.703125 " fill-opacity="1" fill-rule="nonzero"/></g></g></g></g></g><g clip-path="url(#5a49dc4979)"><path fill="#252627" d="M 28.507812 187.992188 L 45.601562 187.992188 C 45.601562 266.238281 109.261719 329.898438 187.507812 329.898438 C 265.753906 329.898438 329.414062 266.238281 329.414062 187.992188 L 346.507812 187.992188 C 346.507812 275.664062 275.179688 346.992188 187.507812 346.992188 C 99.835938 346.992188 28.507812 275.664062 28.507812 187.992188 Z M 28.507812 187.992188 " fill-opacity="1" fill-rule="nonzero"/></g><path stroke-linecap="butt" transform="matrix(0.530948, 0.530948, -0.53033, 0.53033, 90.889979, 78.154104)" fill="none" stroke-linejoin="miter" d="M -0.00104855 10.000347 L 388.554038 9.996664 " stroke="#252627" stroke-width="20" stroke-opacity="1" stroke-miterlimit="4"/><path stroke-linecap="butt" transform="matrix(0.530244, -0.530244, 0.53033, 0.53033, 79.753864, 282.892685)" fill="none" stroke-linejoin="miter" d="M -0.00170076 10.998764 L 387.061819 10.998764 " stroke="#252627" stroke-width="22" stroke-opacity="1" stroke-miterlimit="4"/><g clip-path="url(#b2f52767a1)"><g clip-path="url(#98b8ba3825)"><g clip-path="url(#7645ae0d48)"><path fill="#252627" d="M 93.285156 214.914062 C 94.566406 215.179688 96.03125 215.53125 97.316406 215.796875 C 98.828125 216.277344 100.386719 216.886719 101.898438 217.367188 L 102.125 217.582031 C 103.863281 218.273438 105.730469 218.917969 107.828125 219.777344 C 109.566406 220.46875 111.660156 221.324219 113.496094 222.28125 C 115.28125 223.101562 116.984375 224.105469 118.511719 225.023438 L 120.394531 226.109375 C 121.15625 226.570312 122.097656 227.109375 122.957031 227.832031 C 123.765625 228.421875 124.804688 229.222656 125.839844 230.027344 C 126.296875 230.453125 126.699219 230.75 127.152344 231.171875 C 127.609375 231.597656 128.0625 232.023438 128.644531 232.402344 C 129.683594 233.207031 130.589844 234.058594 131.449219 234.777344 C 133.132812 236.527344 134.863281 238.410156 136.417969 240.207031 C 137.515625 241.582031 138.613281 242.953125 139.535156 244.242188 C 140.183594 245.191406 140.78125 246.007812 141.554688 246.90625 C 141.878906 247.382812 142.152344 247.726562 142.605469 248.152344 C 143.15625 248.835938 143.707031 249.523438 144.257812 250.210938 C 144.902344 251.15625 145.546875 252.105469 146.144531 252.921875 L 146.695312 253.609375 L 147.246094 254.292969 C 147.890625 255.242188 148.539062 256.191406 149.230469 257.265625 C 149.828125 258.085938 150.34375 259.082031 150.8125 259.945312 L 150.859375 260.074219 C 151.421875 261.203125 152.214844 262.539062 152.824219 263.796875 C 153.019531 264.320312 153.390625 264.921875 153.582031 265.445312 C 153.820312 266.097656 154.242188 266.832031 154.480469 267.484375 C 155.65625 269.867188 156.796875 272.558594 157.953125 275.6875 L 158.144531 276.210938 C 159.011719 278.558594 159.925781 281.039062 160.757812 283.695312 C 161.046875 284.476562 161.203125 285.308594 161.492188 286.09375 C 161.683594 286.613281 161.699219 287.054688 161.890625 287.574219 L 162.082031 288.097656 C 162.421875 289.011719 162.578125 289.839844 162.914062 290.753906 C 163.074219 291.585938 163.28125 292.546875 163.4375 293.378906 C 163.5 293.949219 163.742188 294.601562 163.800781 295.171875 C 163.914062 295.871094 164.152344 296.523438 164.214844 297.09375 C 164.375 297.921875 164.660156 298.707031 164.820312 299.539062 C 165.121094 300.757812 165.292969 302.03125 165.464844 303.300781 L 165.589844 304.441406 L 165.699219 305.140625 C 165.921875 306.542969 166.1875 308.074219 166.328125 309.652344 C 166.546875 311.054688 166.636719 312.503906 166.824219 314.210938 C 166.945312 315.351562 166.890625 316.410156 166.96875 317.417969 C 166.980469 317.859375 166.996094 318.296875 167.007812 318.738281 C 166.96875 320.234375 167.105469 321.816406 167.195312 323.265625 C 167.222656 324.144531 167.429688 325.105469 167.457031 325.984375 L 167.519531 326.554688 C 167.484375 326.863281 167.582031 327.125 167.675781 327.382812 C 168.207031 328.820312 169.78125 329.871094 171.277344 329.910156 C 171.632812 330.074219 172.121094 330.191406 172.5625 330.175781 C 174.058594 330.21875 175.6875 330.210938 177.445312 330.15625 C 178.195312 330.175781 178.945312 330.195312 179.511719 330.132812 L 180.132812 330.203125 C 180.75 330.269531 181.320312 330.207031 181.890625 330.144531 C 182.460938 330.082031 183.078125 330.152344 183.828125 330.171875 C 185.195312 330.261719 186.484375 329.339844 187.144531 327.910156 L 187.523438 327.328125 C 187.902344 326.742188 187.96875 326.125 187.988281 325.375 L 188.105469 324.890625 C 188.125 324.140625 188.277344 323.34375 188.296875 322.59375 C 188.320312 321.847656 188.292969 320.96875 188.359375 320.347656 C 188.296875 319.78125 188.316406 319.03125 188.386719 318.414062 L 188.359375 317.535156 C 188.378906 316.785156 188.269531 316.085938 188.207031 315.515625 C 188.242188 315.207031 188.144531 314.945312 188.179688 314.636719 C 188.105469 313.625 188.027344 312.617188 187.953125 311.605469 C 187.910156 310.289062 187.820312 308.839844 187.648438 307.570312 C 187.527344 306.429688 187.402344 305.289062 187.277344 304.148438 C 187.058594 302.75 186.96875 301.300781 186.878906 299.851562 C 186.746094 297.082031 186.046875 294.378906 185.523438 291.753906 L 185.367188 290.921875 C 185.253906 290.222656 184.964844 289.441406 184.855469 288.738281 C 184.492188 286.945312 184.078125 285.023438 183.535156 283.148438 L 183.390625 282.757812 C 182.753906 280.621094 182.195312 278.308594 181.425781 276.222656 C 181.1875 275.570312 180.898438 274.785156 180.65625 274.132812 C 180.175781 272.828125 179.644531 271.394531 179.296875 270.042969 L 179.007812 269.257812 C 178.71875 268.476562 178.558594 267.644531 178.269531 266.863281 C 178.222656 266.730469 178.222656 266.730469 178.175781 266.601562 C 177.789062 265.558594 177.355469 264.382812 176.746094 263.125 C 175.796875 260.957031 174.765625 258.964844 173.816406 256.796875 L 173.351562 255.929688 C 172.59375 254.285156 171.933594 252.894531 171.144531 251.558594 C 170.5 250.609375 169.984375 249.613281 169.289062 248.535156 L 168.609375 247.898438 C 168.238281 247.292969 167.914062 246.820312 167.542969 246.214844 C 166.382812 244.273438 165.042969 242.246094 163.75 240.351562 C 162.28125 238.375 160.808594 236.398438 159.339844 234.421875 C 159.0625 234.078125 158.835938 233.867188 158.5625 233.523438 C 154.941406 228.929688 151.882812 225.460938 148.710938 222.484375 C 146.800781 220.519531 144.855469 218.867188 142.957031 217.34375 C 142.503906 216.917969 141.921875 216.539062 141.46875 216.113281 C 141.015625 215.6875 140.609375 215.394531 140.15625 214.96875 C 139.117188 214.164062 138.128906 213.492188 137.269531 212.769531 L 136.863281 212.476562 L 137.269531 212.769531 C 135.828125 211.671875 134.300781 210.753906 132.90625 209.785156 C 132.144531 209.324219 131.382812 208.867188 130.75 208.359375 C 128.589844 206.929688 126.304688 205.550781 123.707031 204.136719 C 121.46875 202.890625 119.015625 201.867188 116.203125 200.679688 C 114.417969 199.855469 112.015625 198.964844 109.5625 197.941406 C 107.644531 197.167969 105.464844 196.488281 102.800781 195.691406 C 101.289062 195.214844 99.828125 194.863281 98.363281 194.515625 L 96.6875 194.390625 L 96.199219 194.273438 C 95.355469 193.992188 94.425781 193.890625 93.582031 193.609375 C 92.605469 193.375 91.546875 193.320312 90.574219 193.089844 L 90.132812 193.101562 L 89.335938 192.953125 C 88.230469 192.765625 86.992188 192.628906 85.757812 192.492188 C 85.578125 192.410156 85.449219 192.460938 85.136719 192.425781 C 84.519531 192.355469 84.03125 192.242188 83.460938 192.300781 L 83.332031 192.351562 C 82.582031 192.332031 81.785156 192.179688 80.988281 192.027344 C 79.265625 191.777344 77.71875 191.605469 75.914062 191.53125 C 74.722656 191.523438 73.582031 191.648438 72.527344 191.59375 C 71.515625 191.667969 70.636719 191.695312 69.578125 191.640625 C 68.082031 191.601562 66.550781 191.871094 65.101562 191.960938 L 64.53125 192.023438 C 63.828125 192.132812 63.210938 192.0625 62.511719 192.175781 C 61.191406 192.214844 59.789062 192.4375 58.386719 192.65625 C 57.996094 192.800781 57.6875 192.765625 57.296875 192.910156 C 57.035156 193.007812 56.726562 192.972656 56.464844 193.070312 L 56.15625 193.035156 C 55.714844 193.050781 55.324219 193.195312 55.015625 193.160156 C 53.175781 193.394531 51.25 193.808594 49.328125 194.21875 C 48.496094 194.378906 47.714844 194.667969 46.929688 194.957031 C 46.667969 195.050781 46.410156 195.148438 46.148438 195.246094 L 45.886719 195.339844 C 45.753906 195.390625 45.625 195.4375 45.363281 195.535156 C 44.582031 195.824219 43.976562 196.195312 43.289062 196.742188 C 42.945312 197.019531 42.652344 197.421875 42.535156 197.910156 C 42.453125 198.089844 42.320312 198.136719 42.371094 198.269531 C 42.203125 198.625 42.171875 198.933594 42.003906 199.292969 C 41.808594 199.957031 41.867188 200.527344 42.109375 201.179688 C 42.207031 201.441406 42.171875 201.75 42.136719 202.058594 C 42.152344 202.5 42.117188 202.808594 42.261719 203.199219 C 42.417969 204.03125 42.445312 204.910156 42.605469 205.738281 L 42.667969 206.308594 C 42.679688 206.75 42.742188 207.320312 42.886719 207.710938 C 42.984375 207.972656 42.902344 208.152344 42.996094 208.410156 L 43.09375 208.671875 L 43.1875 208.933594 L 43.285156 209.195312 C 43.332031 209.324219 43.300781 209.632812 43.347656 209.765625 C 43.457031 210.464844 43.390625 211.082031 43.628906 211.734375 C 44.015625 212.777344 44.613281 213.597656 45.503906 214.007812 C 46.21875 214.335938 46.886719 214.535156 47.71875 214.378906 C 48.027344 214.410156 48.335938 214.445312 48.597656 214.347656 C 49.558594 214.144531 50.390625 213.984375 51.351562 213.777344 C 51.742188 213.632812 52.183594 213.621094 52.703125 213.425781 C 54.105469 213.207031 55.507812 212.988281 57.21875 212.800781 C 58.667969 212.710938 60.199219 212.441406 62.347656 212.242188 C 64.058594 212.054688 65.820312 212 67.445312 211.992188 C 67.886719 211.976562 68.195312 212.011719 68.636719 212 L 70.441406 212.074219 C 72.25 212.148438 74.054688 212.222656 75.992188 212.25 C 77.179688 212.253906 78.417969 212.390625 79.652344 212.527344 C 80.890625 212.664062 82.175781 212.933594 83.410156 213.070312 L 83.898438 213.1875 C 86.113281 213.554688 88.632812 213.960938 90.894531 214.460938 C 91.378906 214.578125 92.308594 214.679688 93.285156 214.914062 Z M 93.285156 214.914062 " fill-opacity="1" fill-rule="nonzero"/></g></g></g><g clip-path="url(#d02f2380ee)"><path fill="#252627" d="M 346.476562 189.042969 L 329.382812 189.042969 C 329.382812 110.796875 265.726562 47.136719 187.484375 47.136719 C 109.238281 47.136719 45.582031 110.796875 45.582031 189.042969 L 28.488281 189.042969 C 28.488281 101.371094 99.8125 30.042969 187.484375 30.042969 C 275.152344 30.042969 346.476562 101.371094 346.476562 189.042969 Z M 346.476562 189.042969 " fill-opacity="1" fill-rule="nonzero"/></g><g clip-path="url(#7d61ddfea5)"><g clip-path="url(#2e4fb64ac1)"><g clip-path="url(#4bd4d8f0da)"><path fill="#252627" d="M 281.859375 160.171875 C 280.59375 159.828125 279.15625 159.394531 277.886719 159.050781 C 276.410156 158.480469 274.886719 157.777344 273.40625 157.207031 L 273.195312 156.980469 C 271.5 156.1875 269.675781 155.433594 267.632812 154.449219 C 265.941406 153.65625 263.898438 152.675781 262.125 151.613281 C 260.390625 150.683594 258.75 149.582031 257.28125 148.574219 L 255.46875 147.378906 C 254.734375 146.875 253.828125 146.277344 253.011719 145.507812 C 252.238281 144.867188 251.25 144.003906 250.261719 143.140625 C 249.835938 142.691406 249.449219 142.371094 249.023438 141.917969 C 248.59375 141.46875 248.167969 141.015625 247.605469 140.601562 C 246.621094 139.738281 245.765625 138.835938 244.949219 138.066406 C 243.375 136.21875 241.757812 134.238281 240.316406 132.347656 C 239.300781 130.914062 238.285156 129.476562 237.441406 128.132812 C 236.855469 127.148438 236.304688 126.296875 235.585938 125.351562 C 235.289062 124.859375 235.039062 124.5 234.609375 124.050781 C 234.101562 123.332031 233.59375 122.613281 233.085938 121.894531 C 232.5 120.910156 231.910156 119.925781 231.363281 119.074219 L 230.855469 118.359375 L 230.347656 117.640625 C 229.757812 116.65625 229.171875 115.671875 228.542969 114.554688 C 227.992188 113.703125 227.539062 112.679688 227.125 111.785156 L 227.082031 111.652344 C 226.589844 110.496094 225.878906 109.113281 225.34375 107.820312 C 225.183594 107.289062 224.847656 106.664062 224.6875 106.132812 C 224.488281 105.464844 224.113281 104.707031 223.910156 104.042969 C 222.878906 101.59375 221.902344 98.839844 220.9375 95.644531 L 220.773438 95.113281 C 220.050781 92.714844 219.285156 90.1875 218.613281 87.484375 C 218.375 86.6875 218.265625 85.847656 218.023438 85.046875 C 217.863281 84.515625 217.875 84.078125 217.714844 83.542969 L 217.554688 83.011719 C 217.269531 82.078125 217.164062 81.242188 216.882812 80.308594 C 216.773438 79.46875 216.625 78.5 216.515625 77.660156 C 216.488281 77.085938 216.289062 76.421875 216.257812 75.847656 C 216.191406 75.144531 215.988281 74.476562 215.960938 73.90625 C 215.855469 73.066406 215.613281 72.265625 215.503906 71.429688 C 215.273438 70.191406 215.179688 68.910156 215.082031 67.632812 L 215.027344 66.488281 L 214.960938 65.78125 C 214.824219 64.371094 214.648438 62.824219 214.605469 61.242188 C 214.46875 59.828125 214.464844 58.378906 214.382812 56.660156 C 214.328125 55.515625 214.445312 54.460938 214.429688 53.449219 C 214.441406 53.011719 214.453125 52.570312 214.464844 52.132812 C 214.597656 50.640625 214.554688 49.054688 214.550781 47.601562 C 214.574219 46.722656 214.425781 45.75 214.453125 44.871094 L 214.421875 44.300781 C 214.476562 43.992188 214.394531 43.726562 214.316406 43.460938 C 213.871094 41.996094 212.363281 40.855469 210.871094 40.726562 C 210.527344 40.539062 210.046875 40.394531 209.605469 40.382812 C 208.113281 40.25 206.488281 40.160156 204.730469 40.113281 C 203.984375 40.046875 203.238281 39.984375 202.664062 40.011719 L 202.050781 39.90625 C 201.4375 39.800781 200.863281 39.828125 200.292969 39.855469 C 199.71875 39.882812 199.105469 39.777344 198.359375 39.714844 C 197 39.542969 195.65625 40.386719 194.914062 41.773438 L 194.5 42.332031 C 194.089844 42.894531 193.984375 43.507812 193.917969 44.253906 L 193.773438 44.730469 C 193.707031 45.476562 193.511719 46.265625 193.445312 47.011719 C 193.378906 47.757812 193.355469 48.636719 193.25 49.25 C 193.277344 49.820312 193.210938 50.566406 193.105469 51.179688 L 193.082031 52.058594 C 193.015625 52.804688 193.085938 53.511719 193.113281 54.082031 C 193.058594 54.390625 193.140625 54.65625 193.085938 54.960938 C 193.101562 55.976562 193.117188 56.988281 193.132812 58 C 193.097656 59.316406 193.097656 60.769531 193.195312 62.046875 C 193.25 63.195312 193.304688 64.339844 193.363281 65.484375 C 193.5 66.894531 193.5 68.347656 193.503906 69.800781 C 193.46875 72.570312 194.007812 75.3125 194.375 77.960938 L 194.480469 78.800781 C 194.550781 79.507812 194.789062 80.304688 194.859375 81.011719 C 195.117188 82.820312 195.414062 84.765625 195.84375 86.667969 L 195.964844 87.070312 C 196.472656 89.238281 196.890625 91.582031 197.535156 93.710938 C 197.738281 94.378906 197.980469 95.175781 198.179688 95.839844 C 198.582031 97.171875 199.023438 98.636719 199.292969 100.007812 L 199.535156 100.804688 C 199.777344 101.605469 199.886719 102.445312 200.125 103.242188 C 200.167969 103.375 200.167969 103.375 200.207031 103.507812 C 200.527344 104.574219 200.890625 105.769531 201.425781 107.0625 C 202.242188 109.285156 203.152344 111.332031 203.972656 113.554688 L 204.386719 114.449219 C 205.042969 116.136719 205.617188 117.5625 206.328125 118.945312 C 206.914062 119.929688 207.371094 120.953125 208 122.070312 L 208.640625 122.75 C 208.972656 123.375 209.269531 123.867188 209.601562 124.492188 C 210.644531 126.5 211.863281 128.601562 213.039062 130.570312 C 214.390625 132.632812 215.738281 134.695312 217.089844 136.753906 C 217.34375 137.113281 217.554688 137.339844 217.808594 137.699219 C 221.152344 142.5 223.996094 146.144531 226.988281 149.308594 C 228.777344 151.378906 230.617188 153.148438 232.421875 154.78125 C 232.847656 155.234375 233.40625 155.644531 233.835938 156.097656 C 234.261719 156.550781 234.648438 156.867188 235.078125 157.320312 C 236.0625 158.183594 237.011719 158.914062 237.824219 159.683594 L 238.214844 160.003906 L 237.824219 159.683594 C 239.199219 160.867188 240.667969 161.875 242.003906 162.925781 C 242.738281 163.429688 243.46875 163.933594 244.070312 164.480469 C 246.140625 166.03125 248.339844 167.546875 250.847656 169.113281 C 253.011719 170.492188 255.398438 171.660156 258.132812 173.011719 C 259.867188 173.941406 262.210938 174.972656 264.597656 176.140625 C 266.464844 177.03125 268.601562 177.835938 271.214844 178.789062 C 272.695312 179.359375 274.132812 179.796875 275.574219 180.230469 L 277.238281 180.453125 L 277.71875 180.601562 C 278.546875 180.929688 279.464844 181.089844 280.292969 181.421875 C 281.25 181.710938 282.304688 181.828125 283.265625 182.121094 L 283.703125 182.132812 L 284.492188 182.332031 C 285.582031 182.582031 286.808594 182.792969 288.035156 183 C 288.210938 183.09375 288.34375 183.054688 288.648438 183.105469 C 289.261719 183.210938 289.742188 183.355469 290.316406 183.328125 L 290.449219 183.289062 C 291.195312 183.355469 291.980469 183.550781 292.765625 183.75 C 294.472656 184.105469 296.007812 184.367188 297.804688 184.550781 C 298.992188 184.628906 300.136719 184.574219 301.191406 184.691406 C 302.203125 184.675781 303.082031 184.699219 304.132812 184.816406 C 305.625 184.945312 307.171875 184.769531 308.625 184.765625 L 309.195312 184.738281 C 309.902344 184.671875 310.515625 184.777344 311.222656 184.707031 C 312.542969 184.746094 313.953125 184.609375 315.367188 184.472656 C 315.765625 184.351562 316.070312 184.402344 316.472656 184.285156 C 316.738281 184.203125 317.042969 184.253906 317.308594 184.175781 L 317.617188 184.226562 C 318.054688 184.238281 318.457031 184.117188 318.761719 184.171875 C 320.613281 184.046875 322.558594 183.75 324.503906 183.453125 C 325.34375 183.34375 326.140625 183.101562 326.941406 182.863281 C 327.207031 182.78125 327.472656 182.699219 327.738281 182.621094 L 328.003906 182.539062 C 328.136719 182.5 328.273438 182.457031 328.539062 182.378906 C 329.335938 182.136719 329.960938 181.800781 330.679688 181.292969 C 331.039062 181.039062 331.359375 180.652344 331.503906 180.175781 C 331.597656 180 331.730469 179.960938 331.691406 179.828125 C 331.875 179.480469 331.929688 179.175781 332.113281 178.828125 C 332.351562 178.175781 332.324219 177.601562 332.125 176.9375 C 332.042969 176.671875 332.097656 176.363281 332.148438 176.058594 C 332.160156 175.617188 332.214844 175.3125 332.09375 174.910156 C 331.984375 174.074219 332.011719 173.195312 331.902344 172.355469 L 331.875 171.78125 C 331.886719 171.34375 331.859375 170.769531 331.738281 170.371094 C 331.65625 170.105469 331.75 169.929688 331.671875 169.664062 L 331.507812 169.132812 L 331.429688 168.867188 C 331.386719 168.734375 331.441406 168.425781 331.402344 168.292969 C 331.332031 167.589844 331.4375 166.976562 331.238281 166.308594 C 330.914062 165.246094 330.367188 164.394531 329.5 163.929688 C 328.804688 163.558594 328.152344 163.320312 327.3125 163.429688 C 327.007812 163.375 326.699219 163.324219 326.433594 163.402344 C 325.460938 163.550781 324.625 163.660156 323.652344 163.808594 C 323.25 163.929688 322.8125 163.917969 322.277344 164.078125 C 320.867188 164.214844 319.453125 164.351562 317.738281 164.433594 C 316.285156 164.4375 314.738281 164.613281 312.582031 164.6875 C 310.863281 164.769531 309.101562 164.71875 307.476562 164.632812 C 307.039062 164.617188 306.730469 164.566406 306.292969 164.554688 L 304.492188 164.371094 C 302.695312 164.1875 300.894531 164.007812 298.960938 163.863281 C 297.777344 163.785156 296.550781 163.578125 295.324219 163.367188 C 294.097656 163.15625 292.832031 162.8125 291.605469 162.601562 L 291.125 162.457031 C 288.941406 161.957031 286.445312 161.402344 284.21875 160.765625 C 283.742188 160.621094 282.820312 160.464844 281.859375 160.171875 Z M 281.859375 160.171875 " fill-opacity="1" fill-rule="nonzero"/></g></g></g></svg>